<svg width="122" height="13" viewBox="0 0 122 13" fill="none" xmlns="http://www.w3.org/2000/svg">
<path d="M1.908 2.28C1.908 1.668 1.824 1.218 1.656 0.93C1.488 0.629999 1.152 0.479999 0.648 0.479999H0.288V0.12H1.908C2.352 0.12 2.682 0.179999 2.898 0.299999C3.126 0.407999 3.288 0.611999 3.384 0.911999C3.48 1.212 3.528 1.668 3.528 2.28V11.28H9.918V12H1.908V2.28ZM14.2353 12.18C13.3353 12.18 12.5973 11.94 12.0213 11.46C11.4573 10.98 11.1753 10.14 11.1753 8.94V5.7C11.1753 5.088 11.0913 4.638 10.9233 4.35C10.7553 4.05 10.4193 3.9 9.91533 3.9H9.73533V3.54H11.1753C11.6193 3.54 11.9493 3.6 12.1653 3.72C12.3933 3.828 12.5553 4.032 12.6513 4.332C12.7473 4.632 12.7953 5.088 12.7953 5.7V8.94C12.7953 9.78 12.9813 10.398 13.3533 10.794C13.7373 11.178 14.2113 11.37 14.7753 11.37C15.4113 11.37 16.0113 11.052 16.5753 10.416V3.54H18.1953V12H17.2953L16.6653 11.28H16.5753C16.3233 11.532 15.9933 11.748 15.5853 11.928C15.1893 12.096 14.7393 12.18 14.2353 12.18ZM21.0601 5.7C21.0601 5.088 20.9761 4.638 20.8081 4.35C20.6401 4.05 20.3041 3.9 19.8001 3.9H19.4401V3.54H21.0601C21.5041 3.54 21.8401 3.6 22.0681 3.72C22.3081 3.84 22.4821 4.02 22.5901 4.26H22.6801C22.9321 4.008 23.2561 3.798 23.6521 3.63C24.0601 3.45 24.5161 3.36 25.0201 3.36C25.5241 3.36 25.9561 3.456 26.3161 3.648C26.6761 3.828 26.9641 4.152 27.1801 4.62C27.4921 4.224 27.8881 3.918 28.3681 3.702C28.8601 3.474 29.3641 3.36 29.8801 3.36C30.6481 3.36 31.2601 3.6 31.7161 4.08C32.1721 4.56 32.4001 5.4 32.4001 6.6V12H30.7801V6.6C30.7801 5.736 30.6601 5.118 30.4201 4.746C30.1801 4.362 29.8201 4.17 29.3401 4.17C29.0041 4.17 28.6501 4.296 28.2781 4.548C27.9061 4.788 27.6301 5.052 27.4501 5.34C27.5101 5.52 27.5401 5.94 27.5401 6.6V12H25.9201V6.6C25.9201 5.736 25.8001 5.118 25.5601 4.746C25.3201 4.362 24.9601 4.17 24.4801 4.17C23.8441 4.17 23.2441 4.488 22.6801 5.124V12H21.0601V5.7ZM35.877 2.46C35.601 2.46 35.361 2.346 35.157 2.118C34.965 1.89 34.869 1.62 34.869 1.308C34.869 1.056 34.941 0.858 35.085 0.713999C35.241 0.569999 35.445 0.497999 35.697 0.497999C35.973 0.497999 36.207 0.611999 36.399 0.84C36.603 1.068 36.705 1.338 36.705 1.65C36.705 1.902 36.627 2.1 36.471 2.244C36.327 2.388 36.129 2.46 35.877 2.46ZM35.193 5.7C35.193 5.088 35.109 4.638 34.941 4.35C34.773 4.05 34.437 3.9 33.933 3.9H33.573V3.54H35.193C35.637 3.54 35.967 3.6 36.183 3.72C36.411 3.828 36.573 4.032 36.669 4.332C36.765 4.632 36.813 5.088 36.813 5.7V12H35.193V5.7ZM42.6466 12.18C41.8306 12.18 41.1406 11.988 40.5766 11.604C40.0126 11.208 39.5866 10.68 39.2986 10.02C39.0106 9.348 38.8666 8.598 38.8666 7.77C38.8666 6.954 39.0106 6.21 39.2986 5.538C39.5866 4.866 40.0006 4.338 40.5406 3.954C41.0926 3.558 41.7346 3.36 42.4666 3.36C43.6786 3.36 44.5786 3.702 45.1666 4.386C45.7666 5.058 46.0666 6.036 46.0666 7.32L46.0306 8.04H40.5766C40.5766 9.048 40.7926 9.87 41.2246 10.506C41.6566 11.142 42.2506 11.46 43.0066 11.46C43.5706 11.46 44.0446 11.34 44.4286 11.1C44.8246 10.86 45.1906 10.5 45.5266 10.02L45.8866 10.29C45.4906 10.95 45.0286 11.43 44.5006 11.73C43.9726 12.03 43.3546 12.18 42.6466 12.18ZM44.3566 7.32C44.3566 6.264 44.2006 5.46 43.8886 4.908C43.5766 4.356 43.1026 4.08 42.4666 4.08C42.1066 4.08 41.7826 4.224 41.4946 4.512C41.2066 4.788 40.9786 5.172 40.8106 5.664C40.6546 6.156 40.5766 6.708 40.5766 7.32H44.3566ZM48.2857 5.7C48.2857 5.088 48.2017 4.638 48.0337 4.35C47.8657 4.05 47.5297 3.9 47.0257 3.9H46.8457V3.54H48.2857C48.7417 3.54 49.0837 3.606 49.3117 3.738C49.5517 3.858 49.7197 4.062 49.8157 4.35H49.9057C50.1217 4.074 50.4097 3.84 50.7697 3.648C51.1417 3.456 51.5737 3.36 52.0657 3.36C52.5457 3.36 52.9057 3.45 53.1457 3.63C53.3497 3.786 53.5597 4.056 53.7757 4.44L53.0557 4.98C52.9237 4.8 52.7317 4.668 52.4797 4.584C52.2277 4.488 51.9397 4.44 51.6157 4.44C51.2557 4.44 50.9257 4.524 50.6257 4.692C50.3257 4.848 50.0857 5.064 49.9057 5.34V12H48.2857V5.7ZM57.8918 12.18C57.0758 12.18 56.3858 11.988 55.8218 11.604C55.2578 11.208 54.8318 10.68 54.5438 10.02C54.2558 9.348 54.1118 8.598 54.1118 7.77C54.1118 6.954 54.2558 6.21 54.5438 5.538C54.8318 4.866 55.2458 4.338 55.7858 3.954C56.3378 3.558 56.9798 3.36 57.7118 3.36C58.9238 3.36 59.8238 3.702 60.4118 4.386C61.0118 5.058 61.3118 6.036 61.3118 7.32L61.2758 8.04H55.8218C55.8218 9.048 56.0378 9.87 56.4698 10.506C56.9018 11.142 57.4958 11.46 58.2518 11.46C58.8158 11.46 59.2898 11.34 59.6738 11.1C60.0698 10.86 60.4358 10.5 60.7718 10.02L61.1318 10.29C60.7358 10.95 60.2738 11.43 59.7458 11.73C59.2178 12.03 58.5998 12.18 57.8918 12.18ZM59.6018 7.32C59.6018 6.264 59.4458 5.46 59.1338 4.908C58.8218 4.356 58.3478 4.08 57.7118 4.08C57.3518 4.08 57.0278 4.224 56.7398 4.512C56.4518 4.788 56.2238 5.172 56.0558 5.664C55.8998 6.156 55.8218 6.708 55.8218 7.32H59.6018ZM69.2909 2.55V12H68.5709V2.28C68.5709 1.704 68.4449 1.26 68.1929 0.948C67.9529 0.635999 67.5389 0.479999 66.9509 0.479999H66.7709V0.12H67.9409C68.4929 0.12 68.9609 0.209999 69.3449 0.389999C69.7289 0.569999 70.0709 0.839999 70.3709 1.2L76.6709 9.03V0.12H77.3909V12.18H77.0309L69.2909 2.55ZM82.2251 12.18C81.8411 12.18 81.4511 12.102 81.0551 11.946C80.6591 11.778 80.3171 11.508 80.0291 11.136C79.7531 10.764 79.6151 10.272 79.6151 9.66C79.6151 8.748 80.0351 8.1 80.8751 7.716C81.7271 7.332 82.8371 7.14 84.2051 7.14H84.7451C84.7451 5.964 84.5831 5.16 84.2591 4.728C83.9351 4.296 83.4671 4.08 82.8551 4.08C82.3151 4.08 81.8831 4.194 81.5591 4.422C81.2351 4.65 81.0071 5.046 80.8751 5.61H80.0651C80.0651 5.202 80.0891 4.884 80.1371 4.656C80.1851 4.416 80.3111 4.194 80.5151 3.99C80.7311 3.774 81.0851 3.618 81.5771 3.522C82.0811 3.414 82.6271 3.36 83.2151 3.36C84.1871 3.36 84.9551 3.624 85.5191 4.152C86.0831 4.668 86.3651 5.664 86.3651 7.14V12H85.4651L84.8351 11.19H84.7451C84.5291 11.466 84.2111 11.7 83.7911 11.892C83.3711 12.084 82.8491 12.18 82.2251 12.18ZM83.0351 11.37C83.4311 11.37 83.7611 11.274 84.0251 11.082C84.2891 10.89 84.5291 10.626 84.7451 10.29V7.86H84.2051C83.3171 7.86 82.6151 8.028 82.0991 8.364C81.5831 8.688 81.3251 9.12 81.3251 9.66C81.3251 10.212 81.4871 10.638 81.8111 10.938C82.1471 11.226 82.5551 11.37 83.0351 11.37ZM91.3771 12.18C90.7051 12.18 90.1771 11.988 89.7931 11.604C89.4091 11.22 89.2171 10.632 89.2171 9.84V4.26H87.9571V3.54H89.2171V1.92L90.1171 0.84H90.8371V3.54H92.9971V4.26H90.8371V9.84C90.8371 10.92 91.2571 11.46 92.0971 11.46C92.3851 11.46 92.6251 11.43 92.8171 11.37C93.0211 11.31 93.2311 11.22 93.4471 11.1L93.6271 11.46C93.3511 11.664 93.0451 11.838 92.7091 11.982C92.3731 12.114 91.9291 12.18 91.3771 12.18ZM98.0352 12.18C97.1352 12.18 96.3972 11.94 95.8212 11.46C95.2572 10.98 94.9752 10.14 94.9752 8.94V5.7C94.9752 5.088 94.8912 4.638 94.7232 4.35C94.5552 4.05 94.2192 3.9 93.7152 3.9H93.5352V3.54H94.9752C95.4192 3.54 95.7492 3.6 95.9652 3.72C96.1932 3.828 96.3552 4.032 96.4512 4.332C96.5472 4.632 96.5952 5.088 96.5952 5.7V8.94C96.5952 9.78 96.7812 10.398 97.1532 10.794C97.5372 11.178 98.0112 11.37 98.5752 11.37C99.2112 11.37 99.8112 11.052 100.375 10.416V3.54H101.995V12H101.095L100.465 11.28H100.375C100.123 11.532 99.7932 11.748 99.3852 11.928C98.9892 12.096 98.5392 12.18 98.0352 12.18ZM104.734 5.7C104.734 5.088 104.65 4.638 104.482 4.35C104.314 4.05 103.978 3.9 103.474 3.9H103.294V3.54H104.734C105.19 3.54 105.532 3.606 105.76 3.738C106 3.858 106.168 4.062 106.264 4.35H106.354C106.57 4.074 106.858 3.84 107.218 3.648C107.59 3.456 108.022 3.36 108.514 3.36C108.994 3.36 109.354 3.45 109.594 3.63C109.798 3.786 110.008 4.056 110.224 4.44L109.504 4.98C109.372 4.8 109.18 4.668 108.928 4.584C108.676 4.488 108.388 4.44 108.064 4.44C107.704 4.44 107.374 4.524 107.074 4.692C106.774 4.848 106.534 5.064 106.354 5.34V12H104.734V5.7ZM114.34 12.18C113.524 12.18 112.834 11.988 112.27 11.604C111.706 11.208 111.28 10.68 110.992 10.02C110.704 9.348 110.56 8.598 110.56 7.77C110.56 6.954 110.704 6.21 110.992 5.538C111.28 4.866 111.694 4.338 112.234 3.954C112.786 3.558 113.428 3.36 114.16 3.36C115.372 3.36 116.272 3.702 116.86 4.386C117.46 5.058 117.76 6.036 117.76 7.32L117.724 8.04H112.27C112.27 9.048 112.486 9.87 112.918 10.506C113.35 11.142 113.944 11.46 114.7 11.46C115.264 11.46 115.738 11.34 116.122 11.1C116.518 10.86 116.884 10.5 117.22 10.02L117.58 10.29C117.184 10.95 116.722 11.43 116.194 11.73C115.666 12.03 115.048 12.18 114.34 12.18ZM116.05 7.32C116.05 6.264 115.894 5.46 115.582 4.908C115.27 4.356 114.796 4.08 114.16 4.08C113.8 4.08 113.476 4.224 113.188 4.512C112.9 4.788 112.672 5.172 112.504 5.664C112.348 6.156 112.27 6.708 112.27 7.32H116.05ZM119.907 2.28C119.907 1.668 119.823 1.218 119.655 0.93C119.487 0.629999 119.151 0.479999 118.647 0.479999H118.287V0.12H119.907C120.351 0.12 120.681 0.179999 120.897 0.299999C121.125 0.407999 121.287 0.611999 121.383 0.911999C121.479 1.212 121.527 1.668 121.527 2.28V12H119.907V2.28Z" fill="white"/>
</svg>
