<svg width="123" height="61" viewBox="0 0 123 61" fill="none" xmlns="http://www.w3.org/2000/svg">
<g id="STEP 03">
<path d="M5.404 0.14C5.70267 0.14 6.02 0.158667 6.356 0.196001C6.71067 0.233334 7.04667 0.289333 7.364 0.364C7.7 0.420001 7.99867 0.485334 8.26 0.559999C8.54 0.616 8.75467 0.681333 8.904 0.756V3.864H8.652C8.652 2.968 8.344 2.268 7.728 1.764C7.112 1.24133 6.36533 0.980001 5.488 0.980001C4.46133 0.980001 3.63067 1.30667 2.996 1.96C2.36133 2.59467 2.044 3.34133 2.044 4.2C2.044 4.55467 2.11867 4.97467 2.268 5.46C2.436 5.92667 2.73467 6.36533 3.164 6.776L8.68 11.872C9.24 12.3947 9.61333 12.9547 9.8 13.552C9.98667 14.1493 10.08 14.728 10.08 15.288C10.08 16.8373 9.604 18.0973 8.652 19.068C7.71867 20.0387 6.44933 20.524 4.844 20.524C4.396 20.524 3.864 20.4773 3.248 20.384C2.65067 20.2907 2.06267 20.132 1.484 19.908C0.924 19.6653 0.457333 19.3573 0.0840001 18.984C0.028 18.6853 0 18.312 0 17.864C0 17.416 0.0373333 16.9493 0.112 16.464C0.186667 15.96 0.289333 15.5027 0.42 15.092H0.672C0.578667 16.044 0.7 16.8747 1.036 17.584C1.372 18.2933 1.85733 18.8347 2.492 19.208C3.14533 19.5627 3.88267 19.7213 4.704 19.684C5.73067 19.628 6.608 19.2733 7.336 18.62C8.08267 17.948 8.456 17.052 8.456 15.932C8.456 15.3907 8.36267 14.9053 8.176 14.476C7.98933 14.028 7.71867 13.6453 7.364 13.328L1.988 8.344C1.428 7.82133 1.036 7.252 0.812 6.636C0.588 6.00133 0.476 5.41333 0.476 4.872C0.476 4.088 0.662667 3.332 1.036 2.604C1.40933 1.876 1.96 1.288 2.688 0.840001C3.43467 0.373334 4.34 0.14 5.404 0.14ZM8.904 0.42V1.008H6.776V0.42H8.904Z" fill="#DBBB99"/>
<path d="M19.8411 0.616V20.132H18.0211V0.616H19.8411ZM27.0371 0.504V1.344H10.8251V0.504H27.0371ZM27.0371 1.26V3.528L26.7571 3.5V3.024C26.7571 2.55733 26.5891 2.16533 26.2531 1.848C25.9357 1.53067 25.5531 1.36267 25.1051 1.344V1.26H27.0371ZM27.0371 0V0.812L23.6211 0.504C24.0317 0.504 24.4611 0.476 24.9091 0.42C25.3757 0.364 25.8051 0.298667 26.1971 0.224C26.5891 0.149334 26.8691 0.0746668 27.0371 0ZM18.1051 18.088V20.132H15.8651V19.852C15.8651 19.852 15.9211 19.852 16.0331 19.852C16.1637 19.852 16.2291 19.852 16.2291 19.852C16.7144 19.852 17.1251 19.684 17.4611 19.348C17.8157 18.9933 18.0024 18.5733 18.0211 18.088H18.1051ZM19.7571 18.088H19.8411C19.8597 18.5733 20.0371 18.9933 20.3731 19.348C20.7277 19.684 21.1477 19.852 21.6331 19.852C21.6331 19.852 21.6891 19.852 21.8011 19.852C21.9317 19.852 21.9971 19.852 21.9971 19.852V20.132H19.7571V18.088ZM12.7571 1.26V1.344C12.2904 1.36267 11.8984 1.53067 11.5811 1.848C11.2637 2.16533 11.1051 2.55733 11.1051 3.024V3.5L10.8251 3.528V1.26H12.7571ZM10.8251 0C11.0117 0.0746668 11.2917 0.149334 11.6651 0.224C12.0571 0.298667 12.4864 0.364 12.9531 0.42C13.4197 0.476 13.8491 0.504 14.2411 0.504L10.8251 0.812V0Z" fill="#DBBB99"/>
<path d="M31.8297 0.532V20.132H30.0097V0.532H31.8297ZM39.3897 19.264V20.132H31.7457V19.264H39.3897ZM38.1857 10.052V10.892H31.7457V10.052H38.1857ZM39.3897 0.532V1.4H31.7457V0.532H39.3897ZM41.0977 15.596L39.4737 20.132H34.8257L35.8337 19.264C36.823 19.264 37.6257 19.1147 38.2417 18.816C38.8763 18.4987 39.3897 18.06 39.7817 17.5C40.1737 16.94 40.519 16.3053 40.8177 15.596H41.0977ZM38.1857 10.836V12.684H37.9057V12.264C37.9057 11.8907 37.775 11.5733 37.5137 11.312C37.2523 11.032 36.935 10.892 36.5617 10.892V10.836H38.1857ZM38.1857 8.26V10.108H36.5617V10.052C36.935 10.0333 37.2523 9.89333 37.5137 9.632C37.775 9.352 37.9057 9.02533 37.9057 8.652V8.26H38.1857ZM39.3897 1.316V3.556H39.1097V3.052C39.1097 2.604 38.951 2.22133 38.6337 1.904C38.3163 1.568 37.9243 1.39067 37.4577 1.372V1.316H39.3897ZM39.3897 0.0279996V0.840001L35.9737 0.532C36.3843 0.532 36.8137 0.504 37.2617 0.448001C37.7283 0.392001 38.1577 0.326667 38.5497 0.252C38.9417 0.177333 39.2217 0.102666 39.3897 0.0279996ZM30.0937 18.088V20.132H27.8537V19.852C27.8537 19.852 27.9097 19.852 28.0217 19.852C28.1523 19.852 28.2177 19.852 28.2177 19.852C28.703 19.852 29.1137 19.684 29.4497 19.348C29.8043 18.9933 29.991 18.5733 30.0097 18.088H30.0937ZM30.0937 2.576H30.0097C30.0097 2.09067 29.8323 1.68 29.4777 1.344C29.123 0.989333 28.703 0.812 28.2177 0.812C28.2177 0.812 28.1617 0.812 28.0497 0.812C27.9377 0.812 27.8817 0.812 27.8817 0.812L27.8537 0.532H30.0937V2.576Z" fill="#DBBB99"/>
<path d="M45.9524 0.532H49.6484C50.843 0.532 51.8697 0.746667 52.7284 1.176C53.587 1.60533 54.2497 2.23067 54.7164 3.052C55.183 3.85467 55.4164 4.816 55.4164 5.936C55.4164 6.79467 55.2484 7.56933 54.9124 8.26C54.5764 8.932 54.1284 9.50133 53.5684 9.968C53.0084 10.4347 52.3737 10.7893 51.6644 11.032C50.955 11.256 50.2177 11.34 49.4524 11.284C48.7057 11.228 47.9777 11.0133 47.2684 10.64V10.36C47.2684 10.36 47.427 10.388 47.7444 10.444C48.0617 10.4813 48.463 10.4907 48.9484 10.472C49.4524 10.4347 49.975 10.332 50.5164 10.164C51.0764 9.97733 51.5897 9.66 52.0564 9.212C52.5417 8.764 52.9057 8.13867 53.1484 7.336C53.2044 7.13067 53.251 6.87867 53.2884 6.58C53.3257 6.26267 53.335 5.95467 53.3164 5.656C53.2977 4.368 52.9617 3.332 52.3084 2.548C51.655 1.764 50.731 1.372 49.5364 1.372H46.2324C46.2324 1.372 46.2044 1.30667 46.1484 1.176C46.111 1.02667 46.0644 0.886666 46.0084 0.756C45.971 0.606667 45.9524 0.532 45.9524 0.532ZM46.3164 0.532V20.132H44.4964V0.532H46.3164ZM44.5804 18.088V20.132H42.3404V19.852C42.3404 19.852 42.3964 19.852 42.5084 19.852C42.639 19.852 42.7044 19.852 42.7044 19.852C43.1897 19.852 43.6004 19.684 43.9364 19.348C44.291 18.9933 44.4777 18.5733 44.4964 18.088H44.5804ZM44.5804 2.576H44.4964C44.4964 2.09067 44.319 1.68 43.9644 1.344C43.6097 0.989333 43.1897 0.812 42.7044 0.812C42.7044 0.812 42.6484 0.812 42.5364 0.812C42.4244 0.812 42.3684 0.812 42.3684 0.812L42.3404 0.532H44.5804V2.576ZM46.2324 18.088H46.3164C46.335 18.5733 46.5124 18.9933 46.8484 19.348C47.203 19.684 47.623 19.852 48.1084 19.852C48.1084 19.852 48.1644 19.852 48.2764 19.852C48.407 19.852 48.4724 19.852 48.4724 19.852V20.132H46.2324V18.088Z" fill="#DBBB99"/>
<path d="M38.8304 49.0494C38.8304 37.8294 46.7354 25.5044 56.8504 19.1294C59.5704 14.2844 65.3504 10.0344 72.3204 10.0344C78.7804 10.0344 82.9454 13.6894 82.9454 21.1694C82.9454 37.0644 64.2454 60.1844 50.2204 60.1844C44.0154 60.1844 38.8304 55.8494 38.8304 49.0494ZM72.0654 12.0744C67.4754 12.0744 62.9704 14.5394 60.1654 17.3444C63.4804 15.8144 66.8804 14.8794 70.2804 14.8794C73.3404 14.8794 75.3804 16.6644 75.3804 17.4294C75.3804 17.6844 75.1255 18.0244 74.8704 18.0244C74.6154 18.0244 73.4254 16.5794 70.1104 16.5794C56.2554 16.5794 41.2954 34.5144 41.2954 49.0494C41.2954 55.1694 45.1204 58.0594 50.3904 58.0594C62.8854 58.0594 80.5654 36.5544 80.5654 21.3394C80.5654 15.1344 76.9104 12.0744 72.0654 12.0744Z" fill="#DBBB99"/>
<path d="M121.173 10.2044C121.938 10.2044 122.363 10.7144 122.363 11.3094C122.363 12.3294 120.918 13.6894 117.603 14.1994L102.473 28.0544C103.238 27.8844 103.918 27.7994 104.683 27.7994C109.783 27.7994 114.458 31.1994 114.458 39.1894C114.458 49.2194 103.068 60.2694 90.8279 60.2694C84.8779 60.2694 81.9879 57.0394 81.9879 53.0444C81.9879 45.8194 90.4879 40.5494 94.6529 40.5494C95.0779 40.5494 95.3329 40.7194 95.3329 41.0594C95.3329 41.3994 95.1629 41.6544 94.6529 41.8244C90.9129 43.0994 84.1979 46.9244 84.1979 52.9594C84.1979 56.2744 86.4929 58.3994 90.8279 58.3994C101.963 58.3994 112.163 48.4544 112.163 39.0194C112.163 32.8144 108.253 29.6694 102.813 29.6694C101.878 29.6694 101.198 29.9244 100.178 30.0944C98.5629 31.3694 96.8629 32.6444 95.5879 32.6444C94.9079 32.6444 94.3979 32.0494 94.3979 31.3694C94.3979 29.8394 98.9879 28.5644 98.9879 28.5644L114.968 14.0294C114.968 14.0294 109.443 11.9894 101.113 11.9894C95.7579 11.9894 90.4879 13.8594 90.4879 18.5344C90.4879 21.5944 93.2079 23.0394 93.2079 23.4644C93.2079 23.7194 92.9529 24.0594 92.6129 24.0594C92.3579 24.0594 88.3629 22.1044 88.3629 18.2794C88.3629 13.0094 94.3979 10.0344 100.688 10.0344C110.463 10.0344 116.753 12.7544 116.753 12.7544C116.753 12.7544 119.728 10.2044 121.173 10.2044Z" fill="#DBBB99"/>
</g>
</svg>
